<mxfile host="app.diagrams.net" modified="2024-03-06T14:26:32.370Z" agent="Mozilla/5.0 (Windows NT 10.0; Win64; x64) AppleWebKit/537.36 (KHTML, like Gecko) Chrome/122.0.0.0 Safari/537.36" etag="P1C5pkxZkulO62ND62pB" version="24.0.2" type="device">
  <diagram name="Página-1" id="5RfVA0bBc-xrblcsQICv">
    <mxGraphModel dx="1995" dy="93" grid="1" gridSize="10" guides="1" tooltips="1" connect="1" arrows="1" fold="1" page="0" pageScale="1" pageWidth="827" pageHeight="1169" math="0" shadow="0">
      <root>
        <mxCell id="0" />
        <mxCell id="1" parent="0" />
        <mxCell id="Wc_raNERamrVXCOjwgd6-3" value="Desarrollo de componente de gestión de la información" style="rounded=0;whiteSpace=wrap;html=1;" vertex="1" parent="1">
          <mxGeometry x="80" y="407.5" width="150" height="70" as="geometry" />
        </mxCell>
        <mxCell id="Wc_raNERamrVXCOjwgd6-4" value="Desarrollo de componente de comunicaciones" style="rounded=0;whiteSpace=wrap;html=1;" vertex="1" parent="1">
          <mxGeometry x="80" y="580" width="150" height="70" as="geometry" />
        </mxCell>
        <mxCell id="Wc_raNERamrVXCOjwgd6-17" style="edgeStyle=orthogonalEdgeStyle;rounded=0;orthogonalLoop=1;jettySize=auto;html=1;exitX=1;exitY=0.5;exitDx=0;exitDy=0;endArrow=none;endFill=0;" edge="1" parent="1" source="Wc_raNERamrVXCOjwgd6-16" target="Wc_raNERamrVXCOjwgd6-19">
          <mxGeometry relative="1" as="geometry">
            <mxPoint x="-850" y="534.5882352941177" as="targetPoint" />
          </mxGeometry>
        </mxCell>
        <mxCell id="Wc_raNERamrVXCOjwgd6-16" value="Estudio del sistema" style="rounded=0;whiteSpace=wrap;html=1;" vertex="1" parent="1">
          <mxGeometry x="-1010" y="505" width="120" height="60" as="geometry" />
        </mxCell>
        <mxCell id="Wc_raNERamrVXCOjwgd6-22" style="edgeStyle=orthogonalEdgeStyle;rounded=0;orthogonalLoop=1;jettySize=auto;html=1;endArrow=none;endFill=0;" edge="1" parent="1" source="Wc_raNERamrVXCOjwgd6-19" target="Wc_raNERamrVXCOjwgd6-21">
          <mxGeometry relative="1" as="geometry" />
        </mxCell>
        <mxCell id="Wc_raNERamrVXCOjwgd6-19" value="Casos de uso del sistema" style="ellipse;whiteSpace=wrap;html=1;" vertex="1" parent="1">
          <mxGeometry x="-850" y="500" width="120" height="70" as="geometry" />
        </mxCell>
        <mxCell id="Wc_raNERamrVXCOjwgd6-24" style="edgeStyle=orthogonalEdgeStyle;rounded=0;orthogonalLoop=1;jettySize=auto;html=1;endArrow=none;endFill=0;" edge="1" parent="1" source="Wc_raNERamrVXCOjwgd6-21" target="Wc_raNERamrVXCOjwgd6-23">
          <mxGeometry relative="1" as="geometry" />
        </mxCell>
        <mxCell id="Wc_raNERamrVXCOjwgd6-21" value="Selección de casos de uso para el dashboard" style="rounded=0;whiteSpace=wrap;html=1;" vertex="1" parent="1">
          <mxGeometry x="-690" y="505" width="180" height="60" as="geometry" />
        </mxCell>
        <mxCell id="Wc_raNERamrVXCOjwgd6-27" value="" style="edgeStyle=orthogonalEdgeStyle;rounded=0;orthogonalLoop=1;jettySize=auto;html=1;entryX=0;entryY=0.5;entryDx=0;entryDy=0;endArrow=none;endFill=0;" edge="1" parent="1" source="Wc_raNERamrVXCOjwgd6-23" target="Wc_raNERamrVXCOjwgd6-26">
          <mxGeometry relative="1" as="geometry" />
        </mxCell>
        <mxCell id="Wc_raNERamrVXCOjwgd6-29" style="edgeStyle=orthogonalEdgeStyle;rounded=0;orthogonalLoop=1;jettySize=auto;html=1;entryX=0;entryY=0.5;entryDx=0;entryDy=0;endArrow=none;endFill=0;" edge="1" parent="1" source="Wc_raNERamrVXCOjwgd6-23" target="Wc_raNERamrVXCOjwgd6-28">
          <mxGeometry relative="1" as="geometry" />
        </mxCell>
        <mxCell id="Wc_raNERamrVXCOjwgd6-23" value="Casos de uso relativos al dashboard" style="ellipse;whiteSpace=wrap;html=1;" vertex="1" parent="1">
          <mxGeometry x="-480" y="500" width="130" height="70" as="geometry" />
        </mxCell>
        <mxCell id="Wc_raNERamrVXCOjwgd6-31" style="edgeStyle=orthogonalEdgeStyle;rounded=0;orthogonalLoop=1;jettySize=auto;html=1;endArrow=none;endFill=0;" edge="1" parent="1" source="Wc_raNERamrVXCOjwgd6-26" target="Wc_raNERamrVXCOjwgd6-30">
          <mxGeometry relative="1" as="geometry" />
        </mxCell>
        <mxCell id="Wc_raNERamrVXCOjwgd6-26" value="Selección de casos de uso para el componente de gestión de la información" style="whiteSpace=wrap;html=1;" vertex="1" parent="1">
          <mxGeometry x="-310" y="410" width="165" height="65" as="geometry" />
        </mxCell>
        <mxCell id="Wc_raNERamrVXCOjwgd6-34" style="edgeStyle=orthogonalEdgeStyle;rounded=0;orthogonalLoop=1;jettySize=auto;html=1;entryX=0;entryY=0.5;entryDx=0;entryDy=0;endArrow=none;endFill=0;" edge="1" parent="1" source="Wc_raNERamrVXCOjwgd6-28" target="Wc_raNERamrVXCOjwgd6-33">
          <mxGeometry relative="1" as="geometry" />
        </mxCell>
        <mxCell id="Wc_raNERamrVXCOjwgd6-28" value="Selección de casos de uso para el componente de comunicaciones" style="whiteSpace=wrap;html=1;" vertex="1" parent="1">
          <mxGeometry x="-310" y="585" width="165" height="65" as="geometry" />
        </mxCell>
        <mxCell id="Wc_raNERamrVXCOjwgd6-32" style="edgeStyle=orthogonalEdgeStyle;rounded=0;orthogonalLoop=1;jettySize=auto;html=1;entryX=0;entryY=0.5;entryDx=0;entryDy=0;endArrow=none;endFill=0;" edge="1" parent="1" source="Wc_raNERamrVXCOjwgd6-30" target="Wc_raNERamrVXCOjwgd6-3">
          <mxGeometry relative="1" as="geometry" />
        </mxCell>
        <mxCell id="Wc_raNERamrVXCOjwgd6-30" value="Casos de uso relativos al componente de gestión de información" style="ellipse;whiteSpace=wrap;html=1;" vertex="1" parent="1">
          <mxGeometry x="-110" y="406.25" width="160" height="72.5" as="geometry" />
        </mxCell>
        <mxCell id="Wc_raNERamrVXCOjwgd6-35" style="edgeStyle=orthogonalEdgeStyle;rounded=0;orthogonalLoop=1;jettySize=auto;html=1;entryX=0;entryY=0.5;entryDx=0;entryDy=0;endArrow=none;endFill=0;" edge="1" parent="1" source="Wc_raNERamrVXCOjwgd6-33" target="Wc_raNERamrVXCOjwgd6-4">
          <mxGeometry relative="1" as="geometry" />
        </mxCell>
        <mxCell id="Wc_raNERamrVXCOjwgd6-33" value="Casos de uso relativos al componente de comunicaciones" style="ellipse;whiteSpace=wrap;html=1;" vertex="1" parent="1">
          <mxGeometry x="-100" y="581.25" width="160" height="72.5" as="geometry" />
        </mxCell>
      </root>
    </mxGraphModel>
  </diagram>
</mxfile>
